<svg xmlns="http://www.w3.org/2000/svg" width="200" height="182.522" viewBox="0 0 200 182.522"><g transform="translate(-12.852 -263.416)"><path d="M112.844,263.416c-27.207,0-51.944,8.348-70.122,22.18s-29.87,33.443-29.871,55.29c.007,33.545,27.752,62,66.977,72.693l9.43,28.4a5.768,5.768,0,0,0,9.662,2.153l25.264-26.7c49.519-4.415,88.628-36.32,88.667-76.552,0-21.848-11.693-41.459-29.871-55.291s-42.929-22.18-70.137-22.18Zm0,11.527c24.836,0,47.217,7.706,63.145,19.825s25.32,28.367,25.321,46.119c-.044,33.266-34.165,62.489-80.528,65.614a5.77,5.77,0,0,0-3.8,1.8L97.155,429.212,89.92,407.419a5.768,5.768,0,0,0-4.121-3.786c-37.266-8.964-61.414-34.753-61.42-62.746,0-17.752,9.408-34,25.336-46.119S88.009,274.943,112.844,274.943Zm-34.6,57.33c-5.734,0-10.383,4.388-10.384,9.8s4.651,9.809,10.386,9.806,10.379-4.392,10.378-9.806-4.646-9.8-10.378-9.8Zm34.6,0c-5.734,0-10.383,4.388-10.384,9.8s4.651,9.809,10.386,9.806,10.379-4.392,10.378-9.806-4.646-9.8-10.378-9.8Zm34.6,0c-5.734,0-10.383,4.388-10.384,9.8s4.651,9.809,10.386,9.806,10.379-4.392,10.378-9.806-4.646-9.8-10.378-9.8Z" transform="translate(0 0)"/></g></svg>